<?xml version="1.0" standalone="no"?>
<!DOCTYPE svg PUBLIC "-//W3C//DTD SVG 20010904//EN"
 "http://www.w3.org/TR/2001/REC-SVG-20010904/DTD/svg10.dtd">
<svg version="1.0" xmlns="http://www.w3.org/2000/svg"
 width="512.000000pt" height="512.000000pt" viewBox="0 0 512.000000 512.000000"
 preserveAspectRatio="xMidYMid meet">
<metadata>
Created by potrace 1.11, written by Peter Selinger 2001-2013
</metadata>
<g transform="translate(0.000000,512.000000) scale(0.100000,-0.100000)"
fill="#000000" stroke="none">
<path d="M4231 5113 c-14 -3 -80 -60 -155 -135 -72 -71 -136 -134 -143 -140
-10 -8 -25 0 -58 31 -70 65 -90 60 -197 -47 -107 -107 -112 -127 -47 -197 23
-25 40 -48 38 -50 -2 -3 -275 -276 -606 -608 -562 -563 -644 -652 -626 -679 9
-17 -27 -19 -69 -5 -50 17 -267 63 -348 73 -30 4 -66 8 -80 10 -178 22 -596
22 -885 0 -158 -13 -224 -19 -250 -23 -16 -2 -100 -6 -185 -9 -182 -5 -238 7
-385 81 -50 25 -94 45 -97 45 -21 0 100 -270 142 -319 38 -43 56 -78 54 -106
-2 -41 -1 -38 -32 -71 -95 -98 -185 -292 -220 -474 -38 -195 -51 -449 -18
-364 15 40 103 158 164 220 119 122 260 218 417 283 44 18 94 39 110 46 26 11
148 42 234 61 20 4 14 -6 -34 -58 -188 -208 -322 -509 -371 -836 -17 -114 -23
-379 -10 -472 4 -30 9 -71 11 -90 14 -138 88 -374 167 -528 119 -236 279 -415
473 -531 l69 -41 -64 5 c-197 16 -296 28 -430 51 -153 26 -161 27 -185 16 -33
-15 -55 -68 -43 -104 13 -37 37 -55 83 -62 22 -4 47 -8 55 -11 8 -2 33 -6 55
-9 22 -4 51 -8 65 -11 37 -6 117 -17 222 -30 237 -28 948 -28 1082 0 12 2 44
6 71 9 197 21 531 116 586 167 33 31 38 72 13 107 -32 46 -55 46 -197 -2 -119
-40 -261 -74 -372 -90 -22 -4 -52 -9 -67 -12 -16 -3 -28 -4 -28 -1 0 2 30 23
66 47 80 52 167 131 246 225 72 85 65 76 114 155 118 189 212 462 241 700 10
80 10 361 1 450 -16 159 -70 364 -132 505 -15 32 -25 60 -22 62 2 2 16 7 33
12 22 6 38 3 68 -13 35 -19 109 -66 140 -88 268 -196 396 -301 542 -445 70
-70 81 -85 78 -110 -2 -15 -6 -73 -10 -128 -3 -55 -8 -113 -10 -130 -2 -16 -9
-66 -15 -110 -27 -191 -91 -405 -160 -532 -22 -41 -39 -77 -38 -78 3 -2 166
181 215 242 10 12 27 32 38 45 10 12 62 79 113 148 202 268 369 546 476 792
44 101 51 132 48 200 -3 39 -79 114 -247 239 -77 57 -145 109 -151 114 -6 6
-68 51 -138 100 l-126 90 512 512 512 512 39 -39 c71 -71 102 -65 210 39 100
97 108 137 36 207 l-39 38 134 136 c78 78 141 150 149 170 14 34 15 78 2 128
-3 14 -151 169 -343 362 -378 378 -374 375 -491 353z"/>
</g>
</svg>
